<svg id="Layer_1" data-name="Layer 1" xmlns="http://www.w3.org/2000/svg" viewBox="0 0 288 106.01"><defs><style>.cls-1{fill:#b1b3b4;}.cls-2{fill:#007ac6;}.cls-3{fill:#fff;}</style></defs><title>logo-soprema</title><path class="cls-1" d="M49.58,21.84c-.18.34-.76.48-1.59.48a44.78,44.78,0,0,1-14.43-4c-.62-.4-.68-.52-.73-.82s.26-.78.59-1.1h0l3.36-3.35a1.8,1.8,0,0,1,2.1-.52,7.76,7.76,0,0,0,3.69.56,1.36,1.36,0,0,1,1.86,1c.52,1.34,3,5.71,4.55,6.56C49.61,21,49.77,21.5,49.58,21.84Z"/><path class="cls-1" d="M64,42.16c-1.1.15-2.27,3.66-4.92,4.69-1.56.6-8.72.19-11.83-1.62-.3-.2-.28-.32-.24-.42s.25-.24,1,0c4.44,1.37,10.35,1.13,11.06.52s2.63-2.57,2.55-3-.93-.83-1.18-1-.19-.35,0-.34c9.85-.54,15.79-4.19,18.4-9.62,5.53-3.3,8.83-8.26,9.42-14,.49-4.74-1.06-9.42-4-12.23a1,1,0,0,0-1-.17.81.81,0,0,0-.42.92,51.76,51.76,0,0,1,.46,6.18c0,3.75-.94,6.33-2.8,7.64A13.29,13.29,0,0,0,79.16,16C79.07,9.33,75.75,3.6,69.8,1.34,67.89.61,64.92,0,63.45.35c-1.23.31-1.06,1.32-.37,1.6A11,11,0,0,1,65.45,3.2,12.29,12.29,0,0,1,70,9.57c-1,.07-5.93,1.55-8,0C60.12,7.82,59.7,8,58,9.17c-1.48,1-3.58.72-4.66.54s-2,0-2.29.47,0,1.55,1,2.61c2.23,2.5,6.61,4.19,10.77,4.64,3.81.41,4.91,3.09-1.37,4.91C47.15,26,34.52,20.46,28.36,17a3.4,3.4,0,0,0-4.3.81c-2.7,3.06-8.45,5.9-14,5.9-1,0-1.67.14-3,2.92C3.21,34.87.59,50.32,0,55.89H12.62c10.29,5.55,19.94,1.39,21.58-.24a34.3,34.3,0,0,1-4.86-10.53,63.15,63.15,0,0,1,7.41,10.69c-4.4,5.91-14.35,5.34-17.8,4.5.14,3.53,1.78,10.77,2.93,14.74-7.45,12-7.11,23.06-7.11,30.88H31.34c0-7.39,3.75-17.08,6.76-19.69,4.77,3.56,7.4,11,7.4,19.69H63.6a19.6,19.6,0,0,0,1.94-8.52,35.83,35.83,0,0,0-.38-4.47s1.25-.43,4,.5V106H84.43l.33-1c1.48-4.48,4.57-13.82,4.57-29.34,0-15.72-7-30.69-16.83-35.81A30.47,30.47,0,0,1,64,42.16Z"/><rect class="cls-2" x="97.06" y="93.34" width="190.45" height="8.18"/><rect class="cls-2" x="97.06" y="104.42" width="190.45" height="1.52"/><path class="cls-2" d="M111.42,70.65l-2.37-.49c-.33-.07-2-.48-2-1.49,0-1.2,1.53-1.32,2.13-1.33.76,0,5.09,0,8.23,2.63l0-7.83a17.73,17.73,0,0,0-8.53-2c-6.14,0-12.68,3.46-12.68,9.87,0,3.74,2.79,6.33,7.67,7.11l2.39.4c.9.15,1.93.33,1.93,1.27s-1.5,1.38-2.53,1.41-4.53.25-8.67-3.34l0,8.32a18.7,18.7,0,0,0,9.43,2.36c6,0,12.41-3,12.41-9.52,0-5.14-4-6.62-7.52-7.33"/><path class="cls-2" d="M134.5,60.1c-8.76,0-15.11,5.79-15.11,13.77S125.6,87.5,134.5,87.5s15.11-5.61,15.11-13.63S143.25,60.1,134.5,60.1m0,18.92c-2.8,0-4.75-2.17-4.75-5.26s2-5.34,4.75-5.34,4.76,2.25,4.76,5.34S137.3,79,134.5,79"/><path class="cls-2" d="M164.09,60.52H150.64V87.08h10.42v-7.9h5.21c6,0,9.69-3.39,9.69-8.86,0-8.69-6.34-9.8-11.87-9.8m-2.15,11.74h-.88V67.37h.84c1.88,0,3.72.18,3.72,2.3s-1.86,2.58-3.68,2.58"/><path class="cls-2" d="M198.15,76c2.73-1.11,4-3.07,4-6.2,0-8.17-6.16-9.27-12.19-9.27H177.16V87.08h10.57V78.65h1.13c0,.23,3.37,8.33,3.37,8.33l10.66.09L198.15,76M187.7,67.37h.84c1.88,0,3.72.18,3.72,2.3s-1.87,2.58-3.68,2.58h-.88Z"/><polygon class="cls-2" points="213.76 80.33 213.76 77.09 221.97 77.09 221.97 70.44 213.76 70.44 213.76 67.28 222.49 67.28 222.49 60.52 203.67 60.52 203.67 87.08 222.8 87.08 222.8 80.33 213.76 80.33"/><path class="cls-2" d="M244.1,60.52s-2.85,10.55-2.92,10.77h-.74l-2.91-10.77H223.65V87.08h10.44V74.92h.66l3.33,12.16h5.46l3.33-12.16h.66V87.08H258V60.52Z"/><path class="cls-2" d="M279.65,60.52H266.88l-8.35,26.56h10.66l.84-4.24h6.46c0,.23.84,4.24.84,4.24H288Zm-8.22,15.79,1.23-6c.12-.59.26-.93.6-.93h0c.34,0,.48.32.6.93l1.23,6Z"/><path class="cls-3" d="M84.83,8.39c1.33,1.78,2.19,5.12,1.89,8.85a16.91,16.91,0,0,1-7.43,12,20.35,20.35,0,0,0,1.15-7.36c2.32-1.49,3.59-3.75,4-7.19a25.49,25.49,0,0,0-.2-6.16C84.16,8.25,84.38,7.81,84.83,8.39Z"/><path class="cls-3" d="M66.62,1.84A12.75,12.75,0,0,1,70.05,3c4.7,2.22,7.6,7.31,7.47,13.85-.26,13.29-12,18.43-17.19,20a3.12,3.12,0,0,1-3.73-1.77c-.41-1-.66-3.48,1-3.87C63.81,29.63,72,24.8,72.81,16.4c.68-7-2.46-11.51-6.59-14C65.81,2.09,66.14,1.75,66.62,1.84Z"/><path class="cls-3" d="M38.74,31.21a2.2,2.2,0,1,0,2.2,2.2,2.2,2.2,0,0,0-2.2-2.2"/><path class="cls-2" d="M15.73,19.67a.82.82,0,0,0,1.51.65A26.07,26.07,0,0,1,54.17,8,.82.82,0,0,0,55,6.57a27.71,27.71,0,0,0-39.25,13.1Z"/><path class="cls-2" d="M12.49,20.29a.82.82,0,0,0,1.55.55A28.81,28.81,0,0,1,57,6.39.82.82,0,1,0,57.94,5,30.45,30.45,0,0,0,12.49,20.29Z"/><path class="cls-2" d="M19.7,17.81a.82.82,0,0,0,1.4.85,23.51,23.51,0,0,1,29.1-9.52.82.82,0,0,0,.63-1.52A25.16,25.16,0,0,0,19.7,17.81Z"/></svg>